Coordinates
version=1
nRows=13
nColumns=27
inDegrees=yes

Units are S.I. units (second, meters, Newtons, ...)
If the header above contains a line with 'inDegrees', this indicates whether rotational values are in degrees (yes) or radians (no).

endheader
time	pelvis_rotation	pelvis_tilt	pelvis_list	pelvis_tx	pelvis_ty	pelvis_tz	hip_flexion_r	hip_adduction_r	hip_rotation_r	knee_angle_r	knee_rotation_r	knee_adduction_r	knee_angle_r_beta	ankle_angle_r	subtalar_angle_r	mtp_angle_r	hip_flexion_l	hip_adduction_l	hip_rotation_l	knee_angle_l	knee_rotation_l	knee_adduction_l	knee_angle_l_beta	ankle_angle_l	subtalar_angle_l	mtp_angle_l
      4.26000000	      9.08411500	    -36.36988165	      5.56549434	     -0.07766508	      0.57530089	     -1.17583028	    115.83958284	    -39.86657143	      9.67857330	     91.42005195	     -3.25650047	      9.82725134	      1.59558091	      6.50423308	    -11.69672546	      0.00000000	    110.70980897	    -21.79115588	      7.91251027	     84.34970765	     -2.17905246	     -9.89396309	      1.47218012	      7.06007416	     -1.33764758	      0.00000000
      4.26500000	      8.98511997	    -36.45039024	      5.56985455	     -0.07816964	      0.57637626	     -1.17602839	    115.76431960	    -39.73313437	      9.66388711	     91.21217843	     -3.16691055	      9.82509883	      1.59195283	      6.43426858	    -11.70601535	      0.00000000	    110.62410481	    -21.83989019	      7.90052826	     84.17571380	     -2.08261343	     -9.89311514	      1.46914336	      7.01812896	     -1.41478776	      0.00000000
      4.27000000	      9.24363283	    -36.49722745	      5.67034194	     -0.07865680	      0.57742004	     -1.17635029	    115.72778105	    -40.00667010	      9.69110440	     91.02567746	     -3.04718669	      9.82419704	      1.58869778	      6.35266144	    -11.69916455	      0.00000000	    110.53475475	    -21.49671470	      7.93093505	     83.97559241	     -1.95965658	     -9.89247031	      1.46565058	      6.87060169	     -1.68339629	      0.00000000
      4.27500000	      8.64849700	    -36.49567970	      5.55762696	     -0.07933641	      0.57851169	     -1.17631670	    115.47087209	    -39.28176800	      9.81098482	     90.76807050	     -2.84167839	      9.66497180	      1.58420169	      6.27420870	    -11.74954315	      0.00000000	    110.31196303	    -22.06251775	      7.89003188	     83.80309304	     -1.84868367	     -9.79568383	      1.46263990	      6.84572665	     -1.59349646	      0.00000000
      4.28000000	      9.41461434	    -36.62426351	      5.53221687	     -0.07965159	      0.57957757	     -1.17686106	    115.36055903	    -40.28698544	      9.33932537	     90.58327076	     -2.85516211	      9.82155989	      1.58097632	      6.25997323	    -11.67571291	      0.00000000	    110.48946470	    -21.07836294	      8.23407452	     83.61442413	     -1.74052737	     -9.89107529	      1.45934700	      6.61505062	     -2.10642065	      0.00000000
      4.28500000	      8.82285342	    -36.58252279	      5.65558899	     -0.08030206	      0.58060712	     -1.17678745	    115.30616767	    -39.44139486	      9.83900485	     90.37599329	     -2.60443514	      9.66035662	      1.57735865	      6.15230345	    -11.77081296	      0.00000000	    110.10362132	    -21.74859708	      7.87289719	     83.41777286	     -1.68385409	     -9.79335726	      1.45591479	      6.63197940	     -1.94039244	      0.00000000
      4.29000000	      9.33768620	    -36.73827910	      5.61973984	     -0.08070981	      0.58163416	     -1.17721155	    115.23442110	    -40.10893397	      9.46541212	     90.18415436	     -2.58449949	      9.81863962	      1.57401043	      6.07664696	    -11.83400337	      0.00000000	    110.26565432	    -21.06320616	      8.15755215	     83.24223593	     -1.55814104	     -9.88972918	      1.45285109	      6.43885722	     -2.39606076	      0.00000000
      4.29500000	      8.71330334	    -36.70888438	      5.67108487	     -0.08137060	      0.58264895	     -1.17708008	    115.12918037	    -39.25226923	      9.83133004	     89.96786287	     -2.39192237	      9.65288020	      1.57023543	      5.95236873	    -11.93230796	      0.00000000	    109.92978521	    -21.75200018	      7.86898930	     83.05396739	     -1.48724924	     -9.79105798	      1.44956519	      6.43273708	     -2.23500673	      0.00000000
      4.30000000	      9.22550745	    -36.91469218	      5.64069689	     -0.08177315	      0.58351306	     -1.17743436	    115.13856101	    -39.89485948	      9.53286222	     89.81539634	     -2.31840439	      9.81460484	      1.56757439	      5.87013641	    -12.04693749	      0.00000000	    110.17092717	    -21.09641570	      8.18368549	     82.91013005	     -1.35134209	     -9.88818515	      1.44705475	      6.28437712	     -2.58221102	      0.00000000
      4.30500000	      9.10939307	    -36.94843820	      5.74598990	     -0.08230864	      0.58449966	     -1.17753833	    115.11918443	    -39.66710291	      9.71694605	     89.62497162	     -2.18473849	      9.81316100	      1.56425085	      5.75712397	    -12.17163751	      0.00000000	    109.99026410	    -21.21131195	      8.01718562	     82.70951027	     -1.27989678	     -9.88807876	      1.44355328	      6.16821828	     -2.75216036	      0.00000000
      4.31000000	      9.04746240	    -36.96340722	      5.73942781	     -0.08278728	      0.58546140	     -1.17761771	    114.97344199	    -39.56695016	      9.70126626	     89.43282605	     -2.08085831	      9.81243164	      1.56089727	      5.66958409	    -12.27295126	      0.00000000	    109.86504483	    -21.22801422	      8.02760755	     82.53420667	     -1.18475334	     -9.88769903	      1.44049365	      6.08517126	     -2.87096842	      0.00000000
      4.31500000	      9.02928737	    -37.01592853	      5.71540724	     -0.08324629	      0.58637909	     -1.17768839	    114.85547772	    -39.52673716	      9.63906943	     89.24880369	     -1.98965933	      9.81105855	      1.55768548	      5.55671614	    -12.38910232	      0.00000000	    109.80253839	    -21.19901423	      8.08716343	     82.35957915	     -1.07702506	     -9.88708020	      1.43744583	      5.98549639	     -3.01460721	      0.00000000
      4.32000000	      8.87755435	    -36.93596251	      5.73668619	     -0.08363568	      0.58733093	     -1.17772171	    114.64095878	    -39.30396826	      9.74835682	     89.06172970	     -1.87993725	      9.64158042	      1.55442042	      5.57706372	    -12.23274908	      0.00000000	    109.53063725	    -21.32155444	      7.99208598	     82.17837887	     -1.03463735	     -9.78567166	      1.43428329	      5.98961598	     -2.91544157	      0.00000000
